<svg xmlns="http://www.w3.org/2000/svg" viewBox="0 0 64 64">
  <!-- 由 scripts/build-favicon.ts 產生，勿手動編輯。
       對應 .seal-stamp 印章樣式：亮色用朱紅，暗色用金（CSS 變數 vermilion）。 -->
  <style>
    .seal { stroke: #b62020; }
    .char { fill: #b62020; }
    @media (prefers-color-scheme: dark) {
      .seal { stroke: #d1a861; }
      .char { fill: #d1a861; }
    }
  </style>
  <rect class="seal" x="4" y="4" width="56" height="56" rx="10" fill="none" stroke-width="4.5" />
  <path class="char" transform="translate(14.069 45.618) scale(0.035789 -0.035789)" d="M124 668L114 663C133 619 153 557 152 503C228 426 333 579 124 668ZM353 263L343 258C376 209 408 136 411 75C495 1 586 177 353 263ZM434 769L382 698L298 698C356 719 369 825 185 851L177 846C202 813 227 760 230 713C239 706 248 701 257 698L42 698L50 670L352 670C343 614 326 539 308 482L26 482L34 453L223 453L223 334L45 334L53 306L223 306L223 233L125 276C114 196 82 74 35 -6L46 -17C123 43 181 133 218 204L223 204L223 -88L243 -88C301 -88 335 -67 335 -61L335 306L508 306C522 306 532 311 535 322C500 356 443 405 443 405L391 334L335 334L335 453L534 453C546 453 555 457 558 466L558 422C558 245 547 64 434 -79L445 -90C656 41 671 246 671 420L671 450L750 450L750 -89L771 -89C831 -89 865 -64 866 -58L866 450L949 450C963 450 974 455 976 466C934 506 862 565 862 565L798 478L671 478L671 684C756 696 841 714 898 734C928 724 948 726 959 737L836 834C799 801 732 755 667 719L558 753L558 471C522 506 463 556 463 556L408 482L338 482C382 525 425 575 452 613C474 612 486 620 490 631L366 670L503 670C517 670 526 675 529 686C494 720 434 769 434 769Z" />
</svg>
